PathFileType	4	(X/Y/Z)	/Users/itak/Documents/Research/Walk-IL/dataset/trc/00340_00011.trc
DataRate	CameraRate	NumFrames	NumMarkers	Units	OrigDataRate	OrigDataStartFrame	OrigNumFrames
100.000000	100.000000	4	53	mm	100.000000	510	817
Frame#	Time	RPSI			LPSI			L3			STRN			T10			C7			CLAV			RBAK			LBAK			LSHO			LUPA			LAEL			LAOL			LWTS			LWPS			LFRA			LIFD			LHPS			LHTS			RSHO			RUPA			RAEL			RAOL			RWTS			RWPS			RFRA			RIFD			RHTS			RHPS			RBHD			LFHD			RFHD			LBHD			LHIP			RHIP			RASI			LASI			LKNE			LTHI			LANK			LTIP			LTOE			LMT1			LMT5			LHEE			RKNE			RTHI			RANK			RTIP			RTOE			RMT1			RMT5			RHEE			
		X1	Y1	Z1	X2	Y2	Z2	X3	Y3	Z3	X4	Y4	Z4	X5	Y5	Z5	X6	Y6	Z6	X7	Y7	Z7	X8	Y8	Z8	X9	Y9	Z9	X10	Y10	Z10	X11	Y11	Z11	X12	Y12	Z12	X13	Y13	Z13	X14	Y14	Z14	X15	Y15	Z15	X16	Y16	Z16	X17	Y17	Z17	X18	Y18	Z18	X19	Y19	Z19	X20	Y20	Z20	X21	Y21	Z21	X22	Y22	Z22	X23	Y23	Z23	X24	Y24	Z24	X25	Y25	Z25	X26	Y26	Z26	X27	Y27	Z27	X28	Y28	Z28	X29	Y29	Z29	X30	Y30	Z30	X31	Y31	Z31	X32	Y32	Z32	X33	Y33	Z33	X34	Y34	Z34	X35	Y35	Z35	X36	Y36	Z36	X37	Y37	Z37	X38	Y38	Z38	X39	Y39	Z39	X40	Y40	Z40	X41	Y41	Z41	X42	Y42	Z42	X43	Y43	Z43	X44	Y44	Z44	X45	Y45	Z45	X46	Y46	Z46	X47	Y47	Z47	X48	Y48	Z48	X49	Y49	Z49	X50	Y50	Z50	X51	Y51	Z51	X52	Y52	Z52	X53	Y53	Z53	

511	5.100000000000001	-321.5238037109375	974.4456176757812	-338.6716613769531	-215.2378540039062	967.3717041015625	-266.6640930175781	-258.3918762207031	1030.549194335938	-301.3680114746094	-355.3582153320312	1200.964599609375	-85.880126953125	-232.9862365722656	1146.041015625	-287.2689819335938	-222.3261413574219	1388.433227539062	-217.9214019775391	-317.7217407226562	1323.572998046875	-102.964973449707	-261.0570373535156	1263.47412109375	-312.7341613769531	-135.9080810546875	1340.232299804688	-175.4136505126953	-136.4294586181641	1348.46337890625	-73.65235900878906	-76.3265380859375	1224.22314453125	-57.76717376708984	-84.69316101074219	1020.359252929688	-28.97407722473145	-91.51133728027344	1001.843444824219	-113.7561798095703	-266.8845520019531	891.2230224609375	76.43458557128906	-217.5024566650391	843.5068969726562	86.67384338378906	-124.3009033203125	938.014404296875	7.096358776092529	-364.392333984375	779.383056640625	137.6542663574219	-261.6432800292969	792.5025024414062	107.0727310180664	-302.65771484375	838.788330078125	124.9126739501953	-385.0072021484375	1397.275634765625	-265.0005798339844	-434.6524047851562	1348.1533203125	-322.1991271972656	-505.3297119140625	1102.174560546875	-399.9891052246094	-439.9559936523438	1059.05615234375	-357.0545654296875	-599.4041137695312	870.1594848632812	-349.0659484863281	-618.587890625	877.4746704101562	-423.1759338378906	-541.6262817382812	1040.577026367188	-406.2489013671875	-638.1898193359375	706.2915649414062	-390.0768127441406	-646.6741333007812	775.7465209960938	-366.1562194824219	-642.3989868164062	794.7324829101562	-433.2701416015625	-314.3864135742188	1599.787353515625	-201.5694427490234	-278.8085632324219	1588.693481445312	4.650206565856934	-365.1804504394531	1599.405151367188	-47.00454711914062	-179.1924743652344	1581.1357421875	-154.1441192626953	-178.8795776367188	897.7698974609375	-141.6723480224609	-460.7854919433594	935.532470703125	-333.4090881347656	-476.1858215332031	963.2048950195312	-221.3910827636719	-291.2858276367188	926.2073364257812	-68.31372833251953	-267.8517761230469	444.2733459472656	-178.2079467773438	-244.9642639160156	582.3284912109375	-150.5847015380859	-261.0867614746094	43.71414947509766	-321.9559631347656	-258.8970642089844	230.7171783447266	-243.2021331787109	-452.7987670898438	45.18288803100586	-225.6807861328125	-427.92431640625	32.76344299316406	-303.2463073730469	-344.8409729003906	41.57627487182617	-226.9839935302734	-282.3872680664062	46.93954467773438	-394.4638977050781	-607.0516357421875	505.2688903808594	-210.6361236572266	-561.4344482421875	754.7573852539062	-250.2823181152344	-620.2462768554688	87.91697692871094	-307.9560852050781	-624.6170043945312	386.3946533203125	-212.2206726074219	-709.7142944335938	70.36441802978516	-131.8907165527344	-641.0380249023438	61.70535659790039	-144.8314514160156	-700.3895263671875	68.42818450927734	-246.1966094970703	-551.7994384765625	88.52469635009766	-314.8258666992188	
512	5.11	-329.8412475585938	973.7723999023438	-333.1533508300781	-222.2469635009766	966.6936645507812	-263.1340026855469	-265.4964294433594	1030.01123046875	-297.2955017089844	-359.1738586425781	1199.967895507812	-79.85698699951172	-239.4584197998047	1145.3349609375	-283.3268127441406	-228.0427093505859	1387.481323242188	-213.6268310546875	-321.657470703125	1322.426025390625	-97.50177764892578	-267.8699340820312	1262.776123046875	-308.2215881347656	-140.9299163818359	1339.231567382812	-172.5320892333984	-139.8818359375	1347.476928710938	-70.78764343261719	-79.91809844970703	1223.013061523438	-55.47800445556641	-89.18247985839844	1019.294799804688	-26.11611366271973	-96.69741058349609	1000.570922851562	-110.7111740112305	-271.1663513183594	890.9747314453125	80.83943176269531	-221.8225860595703	843.275390625	91.15577697753906	-128.8158569335938	937.1204223632812	10.43149566650391	-368.1390991210938	779.6190795898438	143.5228118896484	-265.7076416015625	792.4014892578125	112.0904388427734	-306.6160583496094	838.8785400390625	129.889892578125	-391.3019104003906	1396.487548828125	-258.3985900878906	-441.6114501953125	1347.54541015625	-315.1110534667969	-511.5792846679688	1101.427490234375	-393.2669372558594	-446.3455200195312	1058.243774414062	-350.3782958984375	-604.3648071289062	868.7415161132812	-342.9550476074219	-623.5300903320312	876.253662109375	-417.0414733886719	-547.4678344726562	1039.679809570312	-399.5845642089844	-642.5266723632812	704.9163208007812	-384.6069946289062	-651.3175048828125	774.246337890625	-360.4300537109375	-647.0096435546875	793.5066528320312	-427.4768981933594	-319.9383544921875	1598.48193359375	-195.8777465820312	-281.6924133300781	1587.640380859375	9.841904640197754	-368.9096374511719	1598.23583984375	-40.72009658813477	-184.1866455078125	1580.0576171875	-149.9979858398438	-183.3035125732422	896.9172973632812	-139.15576171875	-469.2382507324219	934.6453247070312	-324.9263305664062	-481.9828491210938	962.3338623046875	-212.8648223876953	-294.1445922851562	925.2164306640625	-63.38605880737305	-269.5761108398438	443.7601928710938	-176.4934844970703	-247.2878570556641	581.64306640625	-148.4575347900391	-261.5018920898438	43.91742706298828	-322.4173278808594	-259.7681884765625	230.5797119140625	-242.6593780517578	-452.772705078125	45.21443557739258	-225.6759185791016	-428.1496887207031	32.55724716186523	-303.1009826660156	-344.8768005371094	41.63064575195312	-226.9727935791016	-283.1799621582031	47.18607330322266	-394.9030456542969	-611.4641723632812	502.8526611328125	-200.2309112548828	-566.6007690429688	753.1328125	-239.8981781005859	-641.0125122070312	82.98447418212891	-279.0325622558594	-632.3142700195312	385.3088989257812	-196.9106597900391	-723.6241455078125	75.45688629150391	-99.07236480712891	-655.7982788085938	64.37367248535156	-114.3569030761719	-719.1765747070312	68.18665313720703	-213.4207000732422	-572.9188232421875	81.41236114501953	-288.617919921875	
513	5.12	-338.0867614746094	972.95751953125	-327.47509765625	-229.2904510498047	965.905029296875	-259.3490905761719	-272.6328735351562	1029.328247070312	-293.0571899414062	-363.0411376953125	1198.88427734375	-73.84982299804688	-245.9347839355469	1144.48193359375	-279.2669372558594	-233.7812805175781	1386.36962890625	-209.275146484375	-325.6355895996094	1321.19580078125	-92.05158996582031	-274.670654296875	1261.959228515625	-303.6281433105469	-145.9436798095703	1338.14404296875	-169.5523681640625	-143.4320983886719	1346.394409179688	-67.849853515625	-83.63177490234375	1221.721923828125	-53.07757186889648	-93.78480529785156	1018.16796875	-23.31784439086914	-101.9310455322266	999.2929077148438	-107.6554183959961	-275.2755432128906	890.020263671875	85.04842376708984	-225.8760223388672	842.4766845703125	95.35598754882812	-133.2345428466797	936.0274658203125	13.70283985137939	-371.4307861328125	778.7299194335938	148.9153289794922	-269.3233947753906	791.5382080078125	116.695671081543	-310.3255920410156	838.0529174804688	134.5244293212891	-397.5509033203125	1395.59033203125	-251.8220825195312	-448.4910583496094	1346.828247070312	-308.0355834960938	-517.779541015625	1100.556396484375	-386.4928894042969	-452.3726196289062	1057.508422851562	-343.83740234375	-609.2136840820312	867.2055053710938	-336.5792236328125	-628.5316772460938	874.89111328125	-410.5946350097656	-553.296875	1038.653442382812	-392.8184204101562	-646.7034912109375	703.38330078125	-378.7009887695312	-655.79296875	772.5960083007812	-354.288330078125	-651.6472778320312	792.095458984375	-421.28515625	-325.4603576660156	1597.106079101562	-190.1380004882812	-284.6426391601562	1586.435302734375	15.03824138641357	-372.6679077148438	1596.916870117188	-34.42539215087891	-189.1940307617188	1578.914916992188	-145.7587585449219	-187.8224792480469	896.0302124023438	-136.4164428710938	-477.627197265625	933.5384521484375	-316.3351135253906	-487.7713012695312	961.225830078125	-204.3480682373047	-297.0806274414062	924.173583984375	-58.46608352661133	-271.2619018554688	443.2205200195312	-174.6526031494141	-249.5794830322266	580.934326171875	-146.1343536376953	-261.9565124511719	44.10692596435547	-322.9162902832031	-260.6291809082031	230.43701171875	-242.1226959228516	-452.7413635253906	45.28277969360352	-225.6063079833984	-428.4120483398438	32.38147735595703	-302.9291381835938	-344.8936767578125	41.685546875	-226.9603271484375	-284.0103454589844	47.48836135864258	-395.3795166015625	-615.6819458007812	500.3010559082031	-190.2549591064453	-571.5380859375	751.2181396484375	-229.7348327636719	-660.0568237304688	78.97955322265625	-249.2762145996094	-639.5165405273438	384.3943786621094	-182.0125885009766	-735.9776000976562	81.54172515869141	-66.38082122802734	-669.094970703125	68.12309265136719	-83.62625885009766	-736.2084350585938	68.84359741210938	-180.3300018310547	-592.42041015625	75.34638977050781	-261.2691650390625	
514	5.13	-346.2546997070312	972.009033203125	-321.6434020996094	-236.3485565185547	965.0313720703125	-255.3246459960938	-279.7854919433594	1028.503540039062	-288.6400146484375	-366.94921875	1197.714721679688	-67.85838317871094	-252.4599914550781	1143.456909179688	-275.0577392578125	-239.5207824707031	1385.119506835938	-204.8780822753906	-329.6607055664062	1319.891357421875	-86.60865020751953	-281.4646301269531	1261.02099609375	-298.9373168945312	-150.9535064697266	1336.968139648438	-166.4688720703125	-147.0911254882812	1345.20849609375	-64.81818389892578	-87.46257019042969	1220.34716796875	-50.55910491943359	-98.47547912597656	1016.958312988281	-20.54397392272949	-107.2133636474609	997.9994506835938	-104.59033203125	-279.2046508789062	888.3684692382812	89.08709716796875	-229.6509704589844	841.0970458984375	99.27317810058594	-137.5608520507812	934.7238159179688	16.91429138183594	-374.3385620117188	776.7354125976562	153.8019714355469	-272.5287170410156	789.921630859375	120.8966522216797	-313.7883911132812	836.31982421875	138.8406372070312	-403.7579040527344	1394.580444335938	-245.2741394042969	-455.2963256835938	1345.9921875	-300.979248046875	-523.947021484375	1099.551635742188	-379.6598815917969	-457.8952941894531	1056.957275390625	-337.5500793457031	-613.97998046875	865.5555419921875	-329.9356994628906	-633.61279296875	873.3742065429688	-403.8354797363281	-559.1361083984375	1037.487915039062	-385.9448547363281	-650.7594604492188	701.6841430664062	-372.3725280761719	-660.1197509765625	770.7816772460938	-347.7328491210938	-656.3336791992188	790.4896850585938	-414.6973571777344	-330.9537353515625	1595.678100585938	-184.3433532714844	-287.6886596679688	1585.077392578125	20.25980567932129	-376.4569702148438	1595.452026367188	-28.11124801635742	-194.2108612060547	1577.717407226562	-141.4251708984375	-192.4269561767578	895.1304931640625	-133.4365692138672	-485.8714599609375	932.2242431640625	-307.7253112792969	-493.5386352539062	959.8778076171875	-195.8470001220703	-300.0905151367188	923.0872192382812	-53.53315734863281	-272.8824157714844	442.6704406738281	-172.69287109375	-251.8174591064453	580.247314453125	-143.6400604248047	-262.4517822265625	44.29206466674805	-323.44873046875	-261.4703979492188	230.2876586914062	-241.5963897705078	-452.7033386230469	45.37816619873047	-225.4770202636719	-428.706298828125	32.23812103271484	-302.7381896972656	-344.888671875	41.74603652954102	-226.9568939208984	-284.8662414550781	47.84894943237305	-395.8780517578125	-619.7342529296875	497.6656494140625	-180.6817321777344	-576.2859497070312	749.0411376953125	-219.8251800537109	-677.2073974609375	75.8861083984375	-218.9254760742188	-646.25244140625	383.6396484375	-167.5987854003906	-746.939697265625	88.6395263671875	-34.13908386230469	-681.0176391601562	73.01433563232422	-52.87237930297852	-751.4579467773438	70.38521575927734	-147.247802734375	-610.0667724609375	70.34222412109375	-232.9382934570312	
